<?xml version="1.0" encoding="utf-8" standalone="no"?>
<!DOCTYPE svg PUBLIC "-//W3C//DTD SVG 1.1//EN"
  "http://www.w3.org/Graphics/SVG/1.1/DTD/svg11.dtd">
<svg xmlns:xlink="http://www.w3.org/1999/xlink" width="386.764375pt" height="268.818719pt" viewBox="0 0 386.764375 268.818719" xmlns="http://www.w3.org/2000/svg" version="1.1">
 <metadata>
  <rdf:RDF xmlns:dc="http://purl.org/dc/elements/1.1/" xmlns:cc="http://creativecommons.org/ns#" xmlns:rdf="http://www.w3.org/1999/02/22-rdf-syntax-ns#">
   <cc:Work>
    <dc:type rdf:resource="http://purl.org/dc/dcmitype/StillImage"/>
    <dc:date>2026-05-06T16:16:27.269777</dc:date>
    <dc:format>image/svg+xml</dc:format>
    <dc:creator>
     <cc:Agent>
      <dc:title>Matplotlib v3.5.1, https://matplotlib.org/</dc:title>
     </cc:Agent>
    </dc:creator>
   </cc:Work>
  </rdf:RDF>
 </metadata>
 <defs>
  <style type="text/css">*{stroke-linejoin: round; stroke-linecap: butt}</style>
 </defs>
 <g id="figure_1">
  <g id="patch_1">
   <path d="M 0 268.818719 
L 386.764375 268.818719 
L 386.764375 0 
L 0 0 
z
" style="fill: #ffffff"/>
  </g>
  <g id="axes_1">
   <g id="patch_2">
    <path d="M 33.604375 232.230281 
L 379.564375 232.230281 
L 379.564375 21.558281 
L 33.604375 21.558281 
z
" style="fill: #ffffff"/>
   </g>
   <g id="patch_3">
    <path d="M 49.32983 232.230281 
L 58.831833 232.230281 
L 58.831833 165.350281 
L 49.32983 165.350281 
z
" clip-path="url(#pf75d425547)" style="fill: #1f77b4; opacity: 0.45"/>
   </g>
   <g id="patch_4">
    <path d="M 58.831833 232.230281 
L 68.333837 232.230281 
L 68.333837 198.790281 
L 58.831833 198.790281 
z
" clip-path="url(#pf75d425547)" style="fill: #1f77b4; opacity: 0.45"/>
   </g>
   <g id="patch_5">
    <path d="M 68.333837 232.230281 
L 77.835841 232.230281 
L 77.835841 198.790281 
L 68.333837 198.790281 
z
" clip-path="url(#pf75d425547)" style="fill: #1f77b4; opacity: 0.45"/>
   </g>
   <g id="patch_6">
    <path d="M 77.835841 232.230281 
L 87.337845 232.230281 
L 87.337845 165.350281 
L 77.835841 165.350281 
z
" clip-path="url(#pf75d425547)" style="fill: #1f77b4; opacity: 0.45"/>
   </g>
   <g id="patch_7">
    <path d="M 87.337845 232.230281 
L 96.839848 232.230281 
L 96.839848 165.350281 
L 87.337845 165.350281 
z
" clip-path="url(#pf75d425547)" style="fill: #1f77b4; opacity: 0.45"/>
   </g>
   <g id="patch_8">
    <path d="M 96.839848 232.230281 
L 106.341852 232.230281 
L 106.341852 131.910281 
L 96.839848 131.910281 
z
" clip-path="url(#pf75d425547)" style="fill: #1f77b4; opacity: 0.45"/>
   </g>
   <g id="patch_9">
    <path d="M 106.341852 232.230281 
L 115.843856 232.230281 
L 115.843856 165.350281 
L 106.341852 165.350281 
z
" clip-path="url(#pf75d425547)" style="fill: #1f77b4; opacity: 0.45"/>
   </g>
   <g id="patch_10">
    <path d="M 115.843856 232.230281 
L 125.34586 232.230281 
L 125.34586 165.350281 
L 115.843856 165.350281 
z
" clip-path="url(#pf75d425547)" style="fill: #1f77b4; opacity: 0.45"/>
   </g>
   <g id="patch_11">
    <path d="M 125.34586 232.230281 
L 134.847864 232.230281 
L 134.847864 65.030281 
L 125.34586 65.030281 
z
" clip-path="url(#pf75d425547)" style="fill: #1f77b4; opacity: 0.45"/>
   </g>
   <g id="patch_12">
    <path d="M 134.847864 232.230281 
L 144.349867 232.230281 
L 144.349867 198.790281 
L 134.847864 198.790281 
z
" clip-path="url(#pf75d425547)" style="fill: #1f77b4; opacity: 0.45"/>
   </g>
   <g id="patch_13">
    <path d="M 144.349867 232.230281 
L 153.851871 232.230281 
L 153.851871 198.790281 
L 144.349867 198.790281 
z
" clip-path="url(#pf75d425547)" style="fill: #1f77b4; opacity: 0.45"/>
   </g>
   <g id="patch_14">
    <path d="M 153.851871 232.230281 
L 163.353875 232.230281 
L 163.353875 232.230281 
L 153.851871 232.230281 
z
" clip-path="url(#pf75d425547)" style="fill: #1f77b4; opacity: 0.45"/>
   </g>
   <g id="patch_15">
    <path d="M 163.353875 232.230281 
L 172.855879 232.230281 
L 172.855879 232.230281 
L 163.353875 232.230281 
z
" clip-path="url(#pf75d425547)" style="fill: #1f77b4; opacity: 0.45"/>
   </g>
   <g id="patch_16">
    <path d="M 172.855879 232.230281 
L 182.357882 232.230281 
L 182.357882 131.910281 
L 172.855879 131.910281 
z
" clip-path="url(#pf75d425547)" style="fill: #1f77b4; opacity: 0.45"/>
   </g>
   <g id="patch_17">
    <path d="M 182.357882 232.230281 
L 191.859886 232.230281 
L 191.859886 198.790281 
L 182.357882 198.790281 
z
" clip-path="url(#pf75d425547)" style="fill: #1f77b4; opacity: 0.45"/>
   </g>
   <g id="patch_18">
    <path d="M 191.859886 232.230281 
L 201.36189 232.230281 
L 201.36189 198.790281 
L 191.859886 198.790281 
z
" clip-path="url(#pf75d425547)" style="fill: #1f77b4; opacity: 0.45"/>
   </g>
   <g id="patch_19">
    <path d="M 201.36189 232.230281 
L 210.863894 232.230281 
L 210.863894 165.350281 
L 201.36189 165.350281 
z
" clip-path="url(#pf75d425547)" style="fill: #1f77b4; opacity: 0.45"/>
   </g>
   <g id="patch_20">
    <path d="M 210.863894 232.230281 
L 220.365898 232.230281 
L 220.365898 198.790281 
L 210.863894 198.790281 
z
" clip-path="url(#pf75d425547)" style="fill: #1f77b4; opacity: 0.45"/>
   </g>
   <g id="patch_21">
    <path d="M 113.300437 232.230281 
L 125.396122 232.230281 
L 125.396122 165.350281 
L 113.300437 165.350281 
z
" clip-path="url(#pf75d425547)" style="fill: #ff7f0e; opacity: 0.45"/>
   </g>
   <g id="patch_22">
    <path d="M 125.396122 232.230281 
L 137.491806 232.230281 
L 137.491806 232.230281 
L 125.396122 232.230281 
z
" clip-path="url(#pf75d425547)" style="fill: #ff7f0e; opacity: 0.45"/>
   </g>
   <g id="patch_23">
    <path d="M 137.491806 232.230281 
L 149.587491 232.230281 
L 149.587491 165.350281 
L 137.491806 165.350281 
z
" clip-path="url(#pf75d425547)" style="fill: #ff7f0e; opacity: 0.45"/>
   </g>
   <g id="patch_24">
    <path d="M 149.587491 232.230281 
L 161.683175 232.230281 
L 161.683175 198.790281 
L 149.587491 198.790281 
z
" clip-path="url(#pf75d425547)" style="fill: #ff7f0e; opacity: 0.45"/>
   </g>
   <g id="patch_25">
    <path d="M 161.683175 232.230281 
L 173.77886 232.230281 
L 173.77886 165.350281 
L 161.683175 165.350281 
z
" clip-path="url(#pf75d425547)" style="fill: #ff7f0e; opacity: 0.45"/>
   </g>
   <g id="patch_26">
    <path d="M 173.77886 232.230281 
L 185.874544 232.230281 
L 185.874544 31.590281 
L 173.77886 31.590281 
z
" clip-path="url(#pf75d425547)" style="fill: #ff7f0e; opacity: 0.45"/>
   </g>
   <g id="patch_27">
    <path d="M 185.874544 232.230281 
L 197.970229 232.230281 
L 197.970229 198.790281 
L 185.874544 198.790281 
z
" clip-path="url(#pf75d425547)" style="fill: #ff7f0e; opacity: 0.45"/>
   </g>
   <g id="patch_28">
    <path d="M 197.970229 232.230281 
L 210.065913 232.230281 
L 210.065913 31.590281 
L 197.970229 31.590281 
z
" clip-path="url(#pf75d425547)" style="fill: #ff7f0e; opacity: 0.45"/>
   </g>
   <g id="patch_29">
    <path d="M 210.065913 232.230281 
L 222.161598 232.230281 
L 222.161598 131.910281 
L 210.065913 131.910281 
z
" clip-path="url(#pf75d425547)" style="fill: #ff7f0e; opacity: 0.45"/>
   </g>
   <g id="patch_30">
    <path d="M 222.161598 232.230281 
L 234.257282 232.230281 
L 234.257282 198.790281 
L 222.161598 198.790281 
z
" clip-path="url(#pf75d425547)" style="fill: #ff7f0e; opacity: 0.45"/>
   </g>
   <g id="patch_31">
    <path d="M 234.257282 232.230281 
L 246.352967 232.230281 
L 246.352967 165.350281 
L 234.257282 165.350281 
z
" clip-path="url(#pf75d425547)" style="fill: #ff7f0e; opacity: 0.45"/>
   </g>
   <g id="patch_32">
    <path d="M 246.352967 232.230281 
L 258.448651 232.230281 
L 258.448651 198.790281 
L 246.352967 198.790281 
z
" clip-path="url(#pf75d425547)" style="fill: #ff7f0e; opacity: 0.45"/>
   </g>
   <g id="patch_33">
    <path d="M 258.448651 232.230281 
L 270.544336 232.230281 
L 270.544336 232.230281 
L 258.448651 232.230281 
z
" clip-path="url(#pf75d425547)" style="fill: #ff7f0e; opacity: 0.45"/>
   </g>
   <g id="patch_34">
    <path d="M 270.544336 232.230281 
L 282.64002 232.230281 
L 282.64002 198.790281 
L 270.544336 198.790281 
z
" clip-path="url(#pf75d425547)" style="fill: #ff7f0e; opacity: 0.45"/>
   </g>
   <g id="patch_35">
    <path d="M 282.64002 232.230281 
L 294.735704 232.230281 
L 294.735704 198.790281 
L 282.64002 198.790281 
z
" clip-path="url(#pf75d425547)" style="fill: #ff7f0e; opacity: 0.45"/>
   </g>
   <g id="patch_36">
    <path d="M 294.735704 232.230281 
L 306.831389 232.230281 
L 306.831389 232.230281 
L 294.735704 232.230281 
z
" clip-path="url(#pf75d425547)" style="fill: #ff7f0e; opacity: 0.45"/>
   </g>
   <g id="patch_37">
    <path d="M 306.831389 232.230281 
L 318.927073 232.230281 
L 318.927073 232.230281 
L 306.831389 232.230281 
z
" clip-path="url(#pf75d425547)" style="fill: #ff7f0e; opacity: 0.45"/>
   </g>
   <g id="patch_38">
    <path d="M 318.927073 232.230281 
L 331.022758 232.230281 
L 331.022758 198.790281 
L 318.927073 198.790281 
z
" clip-path="url(#pf75d425547)" style="fill: #ff7f0e; opacity: 0.45"/>
   </g>
   <g id="patch_39">
    <path d="M 97.327876 232.230281 
L 112.134045 232.230281 
L 112.134045 165.350281 
L 97.327876 165.350281 
z
" clip-path="url(#pf75d425547)" style="fill: #2ca02c; opacity: 0.45"/>
   </g>
   <g id="patch_40">
    <path d="M 112.134045 232.230281 
L 126.940215 232.230281 
L 126.940215 232.230281 
L 112.134045 232.230281 
z
" clip-path="url(#pf75d425547)" style="fill: #2ca02c; opacity: 0.45"/>
   </g>
   <g id="patch_41">
    <path d="M 126.940215 232.230281 
L 141.746384 232.230281 
L 141.746384 198.790281 
L 126.940215 198.790281 
z
" clip-path="url(#pf75d425547)" style="fill: #2ca02c; opacity: 0.45"/>
   </g>
   <g id="patch_42">
    <path d="M 141.746384 232.230281 
L 156.552553 232.230281 
L 156.552553 131.910281 
L 141.746384 131.910281 
z
" clip-path="url(#pf75d425547)" style="fill: #2ca02c; opacity: 0.45"/>
   </g>
   <g id="patch_43">
    <path d="M 156.552553 232.230281 
L 171.358722 232.230281 
L 171.358722 198.790281 
L 156.552553 198.790281 
z
" clip-path="url(#pf75d425547)" style="fill: #2ca02c; opacity: 0.45"/>
   </g>
   <g id="patch_44">
    <path d="M 171.358722 232.230281 
L 186.164891 232.230281 
L 186.164891 98.470281 
L 171.358722 98.470281 
z
" clip-path="url(#pf75d425547)" style="fill: #2ca02c; opacity: 0.45"/>
   </g>
   <g id="patch_45">
    <path d="M 186.164891 232.230281 
L 200.97106 232.230281 
L 200.97106 131.910281 
L 186.164891 131.910281 
z
" clip-path="url(#pf75d425547)" style="fill: #2ca02c; opacity: 0.45"/>
   </g>
   <g id="patch_46">
    <path d="M 200.97106 232.230281 
L 215.777229 232.230281 
L 215.777229 98.470281 
L 200.97106 98.470281 
z
" clip-path="url(#pf75d425547)" style="fill: #2ca02c; opacity: 0.45"/>
   </g>
   <g id="patch_47">
    <path d="M 215.777229 232.230281 
L 230.583398 232.230281 
L 230.583398 198.790281 
L 215.777229 198.790281 
z
" clip-path="url(#pf75d425547)" style="fill: #2ca02c; opacity: 0.45"/>
   </g>
   <g id="patch_48">
    <path d="M 230.583398 232.230281 
L 245.389568 232.230281 
L 245.389568 165.350281 
L 230.583398 165.350281 
z
" clip-path="url(#pf75d425547)" style="fill: #2ca02c; opacity: 0.45"/>
   </g>
   <g id="patch_49">
    <path d="M 245.389568 232.230281 
L 260.195737 232.230281 
L 260.195737 131.910281 
L 245.389568 131.910281 
z
" clip-path="url(#pf75d425547)" style="fill: #2ca02c; opacity: 0.45"/>
   </g>
   <g id="patch_50">
    <path d="M 260.195737 232.230281 
L 275.001906 232.230281 
L 275.001906 232.230281 
L 260.195737 232.230281 
z
" clip-path="url(#pf75d425547)" style="fill: #2ca02c; opacity: 0.45"/>
   </g>
   <g id="patch_51">
    <path d="M 275.001906 232.230281 
L 289.808075 232.230281 
L 289.808075 165.350281 
L 275.001906 165.350281 
z
" clip-path="url(#pf75d425547)" style="fill: #2ca02c; opacity: 0.45"/>
   </g>
   <g id="patch_52">
    <path d="M 289.808075 232.230281 
L 304.614244 232.230281 
L 304.614244 198.790281 
L 289.808075 198.790281 
z
" clip-path="url(#pf75d425547)" style="fill: #2ca02c; opacity: 0.45"/>
   </g>
   <g id="patch_53">
    <path d="M 304.614244 232.230281 
L 319.420413 232.230281 
L 319.420413 232.230281 
L 304.614244 232.230281 
z
" clip-path="url(#pf75d425547)" style="fill: #2ca02c; opacity: 0.45"/>
   </g>
   <g id="patch_54">
    <path d="M 319.420413 232.230281 
L 334.226582 232.230281 
L 334.226582 165.350281 
L 319.420413 165.350281 
z
" clip-path="url(#pf75d425547)" style="fill: #2ca02c; opacity: 0.45"/>
   </g>
   <g id="patch_55">
    <path d="M 334.226582 232.230281 
L 349.032751 232.230281 
L 349.032751 232.230281 
L 334.226582 232.230281 
z
" clip-path="url(#pf75d425547)" style="fill: #2ca02c; opacity: 0.45"/>
   </g>
   <g id="patch_56">
    <path d="M 349.032751 232.230281 
L 363.83892 232.230281 
L 363.83892 198.790281 
L 349.032751 198.790281 
z
" clip-path="url(#pf75d425547)" style="fill: #2ca02c; opacity: 0.45"/>
   </g>
   <g id="matplotlib.axis_1">
    <g id="xtick_1">
     <g id="line2d_1">
      <defs>
       <path id="mc713725fa6" d="M 0 0 
L 0 3.5 
" style="stroke: #000000; stroke-width: 0.8"/>
      </defs>
      <g>
       <use xlink:href="#mc713725fa6" x="67.964135" y="232.230281" style="stroke: #000000; stroke-width: 0.8"/>
      </g>
     </g>
     <g id="text_1">
      <!-- 1500 -->
      <g transform="translate(56.511635 246.068875)scale(0.09 -0.09)">
       <defs>
        <path id="DejaVuSans-31" d="M 794 531 
L 1825 531 
L 1825 4091 
L 703 3866 
L 703 4441 
L 1819 4666 
L 2450 4666 
L 2450 531 
L 3481 531 
L 3481 0 
L 794 0 
L 794 531 
z
" transform="scale(0.015625)"/>
        <path id="DejaVuSans-35" d="M 691 4666 
L 3169 4666 
L 3169 4134 
L 1269 4134 
L 1269 2991 
Q 1406 3038 1543 3061 
Q 1681 3084 1819 3084 
Q 2600 3084 3056 2656 
Q 3513 2228 3513 1497 
Q 3513 744 3044 326 
Q 2575 -91 1722 -91 
Q 1428 -91 1123 -41 
Q 819 9 494 109 
L 494 744 
Q 775 591 1075 516 
Q 1375 441 1709 441 
Q 2250 441 2565 725 
Q 2881 1009 2881 1497 
Q 2881 1984 2565 2268 
Q 2250 2553 1709 2553 
Q 1456 2553 1204 2497 
Q 953 2441 691 2322 
L 691 4666 
z
" transform="scale(0.015625)"/>
        <path id="DejaVuSans-30" d="M 2034 4250 
Q 1547 4250 1301 3770 
Q 1056 3291 1056 2328 
Q 1056 1369 1301 889 
Q 1547 409 2034 409 
Q 2525 409 2770 889 
Q 3016 1369 3016 2328 
Q 3016 3291 2770 3770 
Q 2525 4250 2034 4250 
z
M 2034 4750 
Q 2819 4750 3233 4129 
Q 3647 3509 3647 2328 
Q 3647 1150 3233 529 
Q 2819 -91 2034 -91 
Q 1250 -91 836 529 
Q 422 1150 422 2328 
Q 422 3509 836 4129 
Q 1250 4750 2034 4750 
z
" transform="scale(0.015625)"/>
       </defs>
       <use xlink:href="#DejaVuSans-31"/>
       <use xlink:href="#DejaVuSans-35" x="63.623047"/>
       <use xlink:href="#DejaVuSans-30" x="127.246094"/>
       <use xlink:href="#DejaVuSans-30" x="190.869141"/>
      </g>
     </g>
    </g>
    <g id="xtick_2">
     <g id="line2d_2">
      <g>
       <use xlink:href="#mc713725fa6" x="116.227102" y="232.230281" style="stroke: #000000; stroke-width: 0.8"/>
      </g>
     </g>
     <g id="text_2">
      <!-- 2000 -->
      <g transform="translate(104.774602 246.068875)scale(0.09 -0.09)">
       <defs>
        <path id="DejaVuSans-32" d="M 1228 531 
L 3431 531 
L 3431 0 
L 469 0 
L 469 531 
Q 828 903 1448 1529 
Q 2069 2156 2228 2338 
Q 2531 2678 2651 2914 
Q 2772 3150 2772 3378 
Q 2772 3750 2511 3984 
Q 2250 4219 1831 4219 
Q 1534 4219 1204 4116 
Q 875 4013 500 3803 
L 500 4441 
Q 881 4594 1212 4672 
Q 1544 4750 1819 4750 
Q 2544 4750 2975 4387 
Q 3406 4025 3406 3419 
Q 3406 3131 3298 2873 
Q 3191 2616 2906 2266 
Q 2828 2175 2409 1742 
Q 1991 1309 1228 531 
z
" transform="scale(0.015625)"/>
       </defs>
       <use xlink:href="#DejaVuSans-32"/>
       <use xlink:href="#DejaVuSans-30" x="63.623047"/>
       <use xlink:href="#DejaVuSans-30" x="127.246094"/>
       <use xlink:href="#DejaVuSans-30" x="190.869141"/>
      </g>
     </g>
    </g>
    <g id="xtick_3">
     <g id="line2d_3">
      <g>
       <use xlink:href="#mc713725fa6" x="164.490068" y="232.230281" style="stroke: #000000; stroke-width: 0.8"/>
      </g>
     </g>
     <g id="text_3">
      <!-- 2500 -->
      <g transform="translate(153.037568 246.068875)scale(0.09 -0.09)">
       <use xlink:href="#DejaVuSans-32"/>
       <use xlink:href="#DejaVuSans-35" x="63.623047"/>
       <use xlink:href="#DejaVuSans-30" x="127.246094"/>
       <use xlink:href="#DejaVuSans-30" x="190.869141"/>
      </g>
     </g>
    </g>
    <g id="xtick_4">
     <g id="line2d_4">
      <g>
       <use xlink:href="#mc713725fa6" x="212.753034" y="232.230281" style="stroke: #000000; stroke-width: 0.8"/>
      </g>
     </g>
     <g id="text_4">
      <!-- 3000 -->
      <g transform="translate(201.300534 246.068875)scale(0.09 -0.09)">
       <defs>
        <path id="DejaVuSans-33" d="M 2597 2516 
Q 3050 2419 3304 2112 
Q 3559 1806 3559 1356 
Q 3559 666 3084 287 
Q 2609 -91 1734 -91 
Q 1441 -91 1130 -33 
Q 819 25 488 141 
L 488 750 
Q 750 597 1062 519 
Q 1375 441 1716 441 
Q 2309 441 2620 675 
Q 2931 909 2931 1356 
Q 2931 1769 2642 2001 
Q 2353 2234 1838 2234 
L 1294 2234 
L 1294 2753 
L 1863 2753 
Q 2328 2753 2575 2939 
Q 2822 3125 2822 3475 
Q 2822 3834 2567 4026 
Q 2313 4219 1838 4219 
Q 1578 4219 1281 4162 
Q 984 4106 628 3988 
L 628 4550 
Q 988 4650 1302 4700 
Q 1616 4750 1894 4750 
Q 2613 4750 3031 4423 
Q 3450 4097 3450 3541 
Q 3450 3153 3228 2886 
Q 3006 2619 2597 2516 
z
" transform="scale(0.015625)"/>
       </defs>
       <use xlink:href="#DejaVuSans-33"/>
       <use xlink:href="#DejaVuSans-30" x="63.623047"/>
       <use xlink:href="#DejaVuSans-30" x="127.246094"/>
       <use xlink:href="#DejaVuSans-30" x="190.869141"/>
      </g>
     </g>
    </g>
    <g id="xtick_5">
     <g id="line2d_5">
      <g>
       <use xlink:href="#mc713725fa6" x="261.016" y="232.230281" style="stroke: #000000; stroke-width: 0.8"/>
      </g>
     </g>
     <g id="text_5">
      <!-- 3500 -->
      <g transform="translate(249.5635 246.068875)scale(0.09 -0.09)">
       <use xlink:href="#DejaVuSans-33"/>
       <use xlink:href="#DejaVuSans-35" x="63.623047"/>
       <use xlink:href="#DejaVuSans-30" x="127.246094"/>
       <use xlink:href="#DejaVuSans-30" x="190.869141"/>
      </g>
     </g>
    </g>
    <g id="xtick_6">
     <g id="line2d_6">
      <g>
       <use xlink:href="#mc713725fa6" x="309.278966" y="232.230281" style="stroke: #000000; stroke-width: 0.8"/>
      </g>
     </g>
     <g id="text_6">
      <!-- 4000 -->
      <g transform="translate(297.826466 246.068875)scale(0.09 -0.09)">
       <defs>
        <path id="DejaVuSans-34" d="M 2419 4116 
L 825 1625 
L 2419 1625 
L 2419 4116 
z
M 2253 4666 
L 3047 4666 
L 3047 1625 
L 3713 1625 
L 3713 1100 
L 3047 1100 
L 3047 0 
L 2419 0 
L 2419 1100 
L 313 1100 
L 313 1709 
L 2253 4666 
z
" transform="scale(0.015625)"/>
       </defs>
       <use xlink:href="#DejaVuSans-34"/>
       <use xlink:href="#DejaVuSans-30" x="63.623047"/>
       <use xlink:href="#DejaVuSans-30" x="127.246094"/>
       <use xlink:href="#DejaVuSans-30" x="190.869141"/>
      </g>
     </g>
    </g>
    <g id="xtick_7">
     <g id="line2d_7">
      <g>
       <use xlink:href="#mc713725fa6" x="357.541933" y="232.230281" style="stroke: #000000; stroke-width: 0.8"/>
      </g>
     </g>
     <g id="text_7">
      <!-- 4500 -->
      <g transform="translate(346.089433 246.068875)scale(0.09 -0.09)">
       <use xlink:href="#DejaVuSans-34"/>
       <use xlink:href="#DejaVuSans-35" x="63.623047"/>
       <use xlink:href="#DejaVuSans-30" x="127.246094"/>
       <use xlink:href="#DejaVuSans-30" x="190.869141"/>
      </g>
     </g>
    </g>
    <g id="text_8">
     <!-- Latency (ms) -->
     <g transform="translate(173.854688 259.539031)scale(0.1 -0.1)">
      <defs>
       <path id="DejaVuSans-4c" d="M 628 4666 
L 1259 4666 
L 1259 531 
L 3531 531 
L 3531 0 
L 628 0 
L 628 4666 
z
" transform="scale(0.015625)"/>
       <path id="DejaVuSans-61" d="M 2194 1759 
Q 1497 1759 1228 1600 
Q 959 1441 959 1056 
Q 959 750 1161 570 
Q 1363 391 1709 391 
Q 2188 391 2477 730 
Q 2766 1069 2766 1631 
L 2766 1759 
L 2194 1759 
z
M 3341 1997 
L 3341 0 
L 2766 0 
L 2766 531 
Q 2569 213 2275 61 
Q 1981 -91 1556 -91 
Q 1019 -91 701 211 
Q 384 513 384 1019 
Q 384 1609 779 1909 
Q 1175 2209 1959 2209 
L 2766 2209 
L 2766 2266 
Q 2766 2663 2505 2880 
Q 2244 3097 1772 3097 
Q 1472 3097 1187 3025 
Q 903 2953 641 2809 
L 641 3341 
Q 956 3463 1253 3523 
Q 1550 3584 1831 3584 
Q 2591 3584 2966 3190 
Q 3341 2797 3341 1997 
z
" transform="scale(0.015625)"/>
       <path id="DejaVuSans-74" d="M 1172 4494 
L 1172 3500 
L 2356 3500 
L 2356 3053 
L 1172 3053 
L 1172 1153 
Q 1172 725 1289 603 
Q 1406 481 1766 481 
L 2356 481 
L 2356 0 
L 1766 0 
Q 1100 0 847 248 
Q 594 497 594 1153 
L 594 3053 
L 172 3053 
L 172 3500 
L 594 3500 
L 594 4494 
L 1172 4494 
z
" transform="scale(0.015625)"/>
       <path id="DejaVuSans-65" d="M 3597 1894 
L 3597 1613 
L 953 1613 
Q 991 1019 1311 708 
Q 1631 397 2203 397 
Q 2534 397 2845 478 
Q 3156 559 3463 722 
L 3463 178 
Q 3153 47 2828 -22 
Q 2503 -91 2169 -91 
Q 1331 -91 842 396 
Q 353 884 353 1716 
Q 353 2575 817 3079 
Q 1281 3584 2069 3584 
Q 2775 3584 3186 3129 
Q 3597 2675 3597 1894 
z
M 3022 2063 
Q 3016 2534 2758 2815 
Q 2500 3097 2075 3097 
Q 1594 3097 1305 2825 
Q 1016 2553 972 2059 
L 3022 2063 
z
" transform="scale(0.015625)"/>
       <path id="DejaVuSans-6e" d="M 3513 2113 
L 3513 0 
L 2938 0 
L 2938 2094 
Q 2938 2591 2744 2837 
Q 2550 3084 2163 3084 
Q 1697 3084 1428 2787 
Q 1159 2491 1159 1978 
L 1159 0 
L 581 0 
L 581 3500 
L 1159 3500 
L 1159 2956 
Q 1366 3272 1645 3428 
Q 1925 3584 2291 3584 
Q 2894 3584 3203 3211 
Q 3513 2838 3513 2113 
z
" transform="scale(0.015625)"/>
       <path id="DejaVuSans-63" d="M 3122 3366 
L 3122 2828 
Q 2878 2963 2633 3030 
Q 2388 3097 2138 3097 
Q 1578 3097 1268 2742 
Q 959 2388 959 1747 
Q 959 1106 1268 751 
Q 1578 397 2138 397 
Q 2388 397 2633 464 
Q 2878 531 3122 666 
L 3122 134 
Q 2881 22 2623 -34 
Q 2366 -91 2075 -91 
Q 1284 -91 818 406 
Q 353 903 353 1747 
Q 353 2603 823 3093 
Q 1294 3584 2113 3584 
Q 2378 3584 2631 3529 
Q 2884 3475 3122 3366 
z
" transform="scale(0.015625)"/>
       <path id="DejaVuSans-79" d="M 2059 -325 
Q 1816 -950 1584 -1140 
Q 1353 -1331 966 -1331 
L 506 -1331 
L 506 -850 
L 844 -850 
Q 1081 -850 1212 -737 
Q 1344 -625 1503 -206 
L 1606 56 
L 191 3500 
L 800 3500 
L 1894 763 
L 2988 3500 
L 3597 3500 
L 2059 -325 
z
" transform="scale(0.015625)"/>
       <path id="DejaVuSans-20" transform="scale(0.015625)"/>
       <path id="DejaVuSans-28" d="M 1984 4856 
Q 1566 4138 1362 3434 
Q 1159 2731 1159 2009 
Q 1159 1288 1364 580 
Q 1569 -128 1984 -844 
L 1484 -844 
Q 1016 -109 783 600 
Q 550 1309 550 2009 
Q 550 2706 781 3412 
Q 1013 4119 1484 4856 
L 1984 4856 
z
" transform="scale(0.015625)"/>
       <path id="DejaVuSans-6d" d="M 3328 2828 
Q 3544 3216 3844 3400 
Q 4144 3584 4550 3584 
Q 5097 3584 5394 3201 
Q 5691 2819 5691 2113 
L 5691 0 
L 5113 0 
L 5113 2094 
Q 5113 2597 4934 2840 
Q 4756 3084 4391 3084 
Q 3944 3084 3684 2787 
Q 3425 2491 3425 1978 
L 3425 0 
L 2847 0 
L 2847 2094 
Q 2847 2600 2669 2842 
Q 2491 3084 2119 3084 
Q 1678 3084 1418 2786 
Q 1159 2488 1159 1978 
L 1159 0 
L 581 0 
L 581 3500 
L 1159 3500 
L 1159 2956 
Q 1356 3278 1631 3431 
Q 1906 3584 2284 3584 
Q 2666 3584 2933 3390 
Q 3200 3197 3328 2828 
z
" transform="scale(0.015625)"/>
       <path id="DejaVuSans-73" d="M 2834 3397 
L 2834 2853 
Q 2591 2978 2328 3040 
Q 2066 3103 1784 3103 
Q 1356 3103 1142 2972 
Q 928 2841 928 2578 
Q 928 2378 1081 2264 
Q 1234 2150 1697 2047 
L 1894 2003 
Q 2506 1872 2764 1633 
Q 3022 1394 3022 966 
Q 3022 478 2636 193 
Q 2250 -91 1575 -91 
Q 1294 -91 989 -36 
Q 684 19 347 128 
L 347 722 
Q 666 556 975 473 
Q 1284 391 1588 391 
Q 1994 391 2212 530 
Q 2431 669 2431 922 
Q 2431 1156 2273 1281 
Q 2116 1406 1581 1522 
L 1381 1569 
Q 847 1681 609 1914 
Q 372 2147 372 2553 
Q 372 3047 722 3315 
Q 1072 3584 1716 3584 
Q 2034 3584 2315 3537 
Q 2597 3491 2834 3397 
z
" transform="scale(0.015625)"/>
       <path id="DejaVuSans-29" d="M 513 4856 
L 1013 4856 
Q 1481 4119 1714 3412 
Q 1947 2706 1947 2009 
Q 1947 1309 1714 600 
Q 1481 -109 1013 -844 
L 513 -844 
Q 928 -128 1133 580 
Q 1338 1288 1338 2009 
Q 1338 2731 1133 3434 
Q 928 4138 513 4856 
z
" transform="scale(0.015625)"/>
      </defs>
      <use xlink:href="#DejaVuSans-4c"/>
      <use xlink:href="#DejaVuSans-61" x="55.712891"/>
      <use xlink:href="#DejaVuSans-74" x="116.992188"/>
      <use xlink:href="#DejaVuSans-65" x="156.201172"/>
      <use xlink:href="#DejaVuSans-6e" x="217.724609"/>
      <use xlink:href="#DejaVuSans-63" x="281.103516"/>
      <use xlink:href="#DejaVuSans-79" x="336.083984"/>
      <use xlink:href="#DejaVuSans-20" x="395.263672"/>
      <use xlink:href="#DejaVuSans-28" x="427.050781"/>
      <use xlink:href="#DejaVuSans-6d" x="466.064453"/>
      <use xlink:href="#DejaVuSans-73" x="563.476562"/>
      <use xlink:href="#DejaVuSans-29" x="615.576172"/>
     </g>
    </g>
   </g>
   <g id="matplotlib.axis_2">
    <g id="ytick_1">
     <g id="line2d_8">
      <defs>
       <path id="m440264c9c8" d="M 0 0 
L -3.5 0 
" style="stroke: #000000; stroke-width: 0.8"/>
      </defs>
      <g>
       <use xlink:href="#m440264c9c8" x="33.604375" y="232.230281" style="stroke: #000000; stroke-width: 0.8"/>
      </g>
     </g>
     <g id="text_9">
      <!-- 0 -->
      <g transform="translate(20.878125 235.649578)scale(0.09 -0.09)">
       <use xlink:href="#DejaVuSans-30"/>
      </g>
     </g>
    </g>
    <g id="ytick_2">
     <g id="line2d_9">
      <g>
       <use xlink:href="#m440264c9c8" x="33.604375" y="198.790281" style="stroke: #000000; stroke-width: 0.8"/>
      </g>
     </g>
     <g id="text_10">
      <!-- 1 -->
      <g transform="translate(20.878125 202.209578)scale(0.09 -0.09)">
       <use xlink:href="#DejaVuSans-31"/>
      </g>
     </g>
    </g>
    <g id="ytick_3">
     <g id="line2d_10">
      <g>
       <use xlink:href="#m440264c9c8" x="33.604375" y="165.350281" style="stroke: #000000; stroke-width: 0.8"/>
      </g>
     </g>
     <g id="text_11">
      <!-- 2 -->
      <g transform="translate(20.878125 168.769578)scale(0.09 -0.09)">
       <use xlink:href="#DejaVuSans-32"/>
      </g>
     </g>
    </g>
    <g id="ytick_4">
     <g id="line2d_11">
      <g>
       <use xlink:href="#m440264c9c8" x="33.604375" y="131.910281" style="stroke: #000000; stroke-width: 0.8"/>
      </g>
     </g>
     <g id="text_12">
      <!-- 3 -->
      <g transform="translate(20.878125 135.329578)scale(0.09 -0.09)">
       <use xlink:href="#DejaVuSans-33"/>
      </g>
     </g>
    </g>
    <g id="ytick_5">
     <g id="line2d_12">
      <g>
       <use xlink:href="#m440264c9c8" x="33.604375" y="98.470281" style="stroke: #000000; stroke-width: 0.8"/>
      </g>
     </g>
     <g id="text_13">
      <!-- 4 -->
      <g transform="translate(20.878125 101.889578)scale(0.09 -0.09)">
       <use xlink:href="#DejaVuSans-34"/>
      </g>
     </g>
    </g>
    <g id="ytick_6">
     <g id="line2d_13">
      <g>
       <use xlink:href="#m440264c9c8" x="33.604375" y="65.030281" style="stroke: #000000; stroke-width: 0.8"/>
      </g>
     </g>
     <g id="text_14">
      <!-- 5 -->
      <g transform="translate(20.878125 68.449578)scale(0.09 -0.09)">
       <use xlink:href="#DejaVuSans-35"/>
      </g>
     </g>
    </g>
    <g id="ytick_7">
     <g id="line2d_14">
      <g>
       <use xlink:href="#m440264c9c8" x="33.604375" y="31.590281" style="stroke: #000000; stroke-width: 0.8"/>
      </g>
     </g>
     <g id="text_15">
      <!-- 6 -->
      <g transform="translate(20.878125 35.009578)scale(0.09 -0.09)">
       <defs>
        <path id="DejaVuSans-36" d="M 2113 2584 
Q 1688 2584 1439 2293 
Q 1191 2003 1191 1497 
Q 1191 994 1439 701 
Q 1688 409 2113 409 
Q 2538 409 2786 701 
Q 3034 994 3034 1497 
Q 3034 2003 2786 2293 
Q 2538 2584 2113 2584 
z
M 3366 4563 
L 3366 3988 
Q 3128 4100 2886 4159 
Q 2644 4219 2406 4219 
Q 1781 4219 1451 3797 
Q 1122 3375 1075 2522 
Q 1259 2794 1537 2939 
Q 1816 3084 2150 3084 
Q 2853 3084 3261 2657 
Q 3669 2231 3669 1497 
Q 3669 778 3244 343 
Q 2819 -91 2113 -91 
Q 1303 -91 875 529 
Q 447 1150 447 2328 
Q 447 3434 972 4092 
Q 1497 4750 2381 4750 
Q 2619 4750 2861 4703 
Q 3103 4656 3366 4563 
z
" transform="scale(0.015625)"/>
       </defs>
       <use xlink:href="#DejaVuSans-36"/>
      </g>
     </g>
    </g>
    <g id="text_16">
     <!-- Questions -->
     <g transform="translate(14.798438 151.86225)rotate(-90)scale(0.1 -0.1)">
      <defs>
       <path id="DejaVuSans-51" d="M 2522 4238 
Q 1834 4238 1429 3725 
Q 1025 3213 1025 2328 
Q 1025 1447 1429 934 
Q 1834 422 2522 422 
Q 3209 422 3611 934 
Q 4013 1447 4013 2328 
Q 4013 3213 3611 3725 
Q 3209 4238 2522 4238 
z
M 3406 84 
L 4238 -825 
L 3475 -825 
L 2784 -78 
Q 2681 -84 2626 -87 
Q 2572 -91 2522 -91 
Q 1538 -91 948 567 
Q 359 1225 359 2328 
Q 359 3434 948 4092 
Q 1538 4750 2522 4750 
Q 3503 4750 4090 4092 
Q 4678 3434 4678 2328 
Q 4678 1516 4351 937 
Q 4025 359 3406 84 
z
" transform="scale(0.015625)"/>
       <path id="DejaVuSans-75" d="M 544 1381 
L 544 3500 
L 1119 3500 
L 1119 1403 
Q 1119 906 1312 657 
Q 1506 409 1894 409 
Q 2359 409 2629 706 
Q 2900 1003 2900 1516 
L 2900 3500 
L 3475 3500 
L 3475 0 
L 2900 0 
L 2900 538 
Q 2691 219 2414 64 
Q 2138 -91 1772 -91 
Q 1169 -91 856 284 
Q 544 659 544 1381 
z
M 1991 3584 
L 1991 3584 
z
" transform="scale(0.015625)"/>
       <path id="DejaVuSans-69" d="M 603 3500 
L 1178 3500 
L 1178 0 
L 603 0 
L 603 3500 
z
M 603 4863 
L 1178 4863 
L 1178 4134 
L 603 4134 
L 603 4863 
z
" transform="scale(0.015625)"/>
       <path id="DejaVuSans-6f" d="M 1959 3097 
Q 1497 3097 1228 2736 
Q 959 2375 959 1747 
Q 959 1119 1226 758 
Q 1494 397 1959 397 
Q 2419 397 2687 759 
Q 2956 1122 2956 1747 
Q 2956 2369 2687 2733 
Q 2419 3097 1959 3097 
z
M 1959 3584 
Q 2709 3584 3137 3096 
Q 3566 2609 3566 1747 
Q 3566 888 3137 398 
Q 2709 -91 1959 -91 
Q 1206 -91 779 398 
Q 353 888 353 1747 
Q 353 2609 779 3096 
Q 1206 3584 1959 3584 
z
" transform="scale(0.015625)"/>
      </defs>
      <use xlink:href="#DejaVuSans-51"/>
      <use xlink:href="#DejaVuSans-75" x="78.710938"/>
      <use xlink:href="#DejaVuSans-65" x="142.089844"/>
      <use xlink:href="#DejaVuSans-73" x="203.613281"/>
      <use xlink:href="#DejaVuSans-74" x="255.712891"/>
      <use xlink:href="#DejaVuSans-69" x="294.921875"/>
      <use xlink:href="#DejaVuSans-6f" x="322.705078"/>
      <use xlink:href="#DejaVuSans-6e" x="383.886719"/>
      <use xlink:href="#DejaVuSans-73" x="447.265625"/>
     </g>
    </g>
   </g>
   <g id="patch_57">
    <path d="M 33.604375 232.230281 
L 33.604375 21.558281 
" style="fill: none; stroke: #333333; stroke-width: 0.8; stroke-linejoin: miter; stroke-linecap: square"/>
   </g>
   <g id="patch_58">
    <path d="M 379.564375 232.230281 
L 379.564375 21.558281 
" style="fill: none; stroke: #333333; stroke-width: 0.8; stroke-linejoin: miter; stroke-linecap: square"/>
   </g>
   <g id="patch_59">
    <path d="M 33.604375 232.230281 
L 379.564375 232.230281 
" style="fill: none; stroke: #333333; stroke-width: 0.8; stroke-linejoin: miter; stroke-linecap: square"/>
   </g>
   <g id="patch_60">
    <path d="M 33.604375 21.558281 
L 379.564375 21.558281 
" style="fill: none; stroke: #333333; stroke-width: 0.8; stroke-linejoin: miter; stroke-linecap: square"/>
   </g>
   <g id="text_17">
    <!-- MedQA Latency Distribution -->
    <g transform="translate(129.549141 15.558281)scale(0.11 -0.11)">
     <defs>
      <path id="DejaVuSans-4d" d="M 628 4666 
L 1569 4666 
L 2759 1491 
L 3956 4666 
L 4897 4666 
L 4897 0 
L 4281 0 
L 4281 4097 
L 3078 897 
L 2444 897 
L 1241 4097 
L 1241 0 
L 628 0 
L 628 4666 
z
" transform="scale(0.015625)"/>
      <path id="DejaVuSans-64" d="M 2906 2969 
L 2906 4863 
L 3481 4863 
L 3481 0 
L 2906 0 
L 2906 525 
Q 2725 213 2448 61 
Q 2172 -91 1784 -91 
Q 1150 -91 751 415 
Q 353 922 353 1747 
Q 353 2572 751 3078 
Q 1150 3584 1784 3584 
Q 2172 3584 2448 3432 
Q 2725 3281 2906 2969 
z
M 947 1747 
Q 947 1113 1208 752 
Q 1469 391 1925 391 
Q 2381 391 2643 752 
Q 2906 1113 2906 1747 
Q 2906 2381 2643 2742 
Q 2381 3103 1925 3103 
Q 1469 3103 1208 2742 
Q 947 2381 947 1747 
z
" transform="scale(0.015625)"/>
      <path id="DejaVuSans-41" d="M 2188 4044 
L 1331 1722 
L 3047 1722 
L 2188 4044 
z
M 1831 4666 
L 2547 4666 
L 4325 0 
L 3669 0 
L 3244 1197 
L 1141 1197 
L 716 0 
L 50 0 
L 1831 4666 
z
" transform="scale(0.015625)"/>
      <path id="DejaVuSans-44" d="M 1259 4147 
L 1259 519 
L 2022 519 
Q 2988 519 3436 956 
Q 3884 1394 3884 2338 
Q 3884 3275 3436 3711 
Q 2988 4147 2022 4147 
L 1259 4147 
z
M 628 4666 
L 1925 4666 
Q 3281 4666 3915 4102 
Q 4550 3538 4550 2338 
Q 4550 1131 3912 565 
Q 3275 0 1925 0 
L 628 0 
L 628 4666 
z
" transform="scale(0.015625)"/>
      <path id="DejaVuSans-72" d="M 2631 2963 
Q 2534 3019 2420 3045 
Q 2306 3072 2169 3072 
Q 1681 3072 1420 2755 
Q 1159 2438 1159 1844 
L 1159 0 
L 581 0 
L 581 3500 
L 1159 3500 
L 1159 2956 
Q 1341 3275 1631 3429 
Q 1922 3584 2338 3584 
Q 2397 3584 2469 3576 
Q 2541 3569 2628 3553 
L 2631 2963 
z
" transform="scale(0.015625)"/>
      <path id="DejaVuSans-62" d="M 3116 1747 
Q 3116 2381 2855 2742 
Q 2594 3103 2138 3103 
Q 1681 3103 1420 2742 
Q 1159 2381 1159 1747 
Q 1159 1113 1420 752 
Q 1681 391 2138 391 
Q 2594 391 2855 752 
Q 3116 1113 3116 1747 
z
M 1159 2969 
Q 1341 3281 1617 3432 
Q 1894 3584 2278 3584 
Q 2916 3584 3314 3078 
Q 3713 2572 3713 1747 
Q 3713 922 3314 415 
Q 2916 -91 2278 -91 
Q 1894 -91 1617 61 
Q 1341 213 1159 525 
L 1159 0 
L 581 0 
L 581 4863 
L 1159 4863 
L 1159 2969 
z
" transform="scale(0.015625)"/>
     </defs>
     <use xlink:href="#DejaVuSans-4d"/>
     <use xlink:href="#DejaVuSans-65" x="86.279297"/>
     <use xlink:href="#DejaVuSans-64" x="147.802734"/>
     <use xlink:href="#DejaVuSans-51" x="211.279297"/>
     <use xlink:href="#DejaVuSans-41" x="289.990234"/>
     <use xlink:href="#DejaVuSans-20" x="358.398438"/>
     <use xlink:href="#DejaVuSans-4c" x="390.185547"/>
     <use xlink:href="#DejaVuSans-61" x="445.898438"/>
     <use xlink:href="#DejaVuSans-74" x="507.177734"/>
     <use xlink:href="#DejaVuSans-65" x="546.386719"/>
     <use xlink:href="#DejaVuSans-6e" x="607.910156"/>
     <use xlink:href="#DejaVuSans-63" x="671.289062"/>
     <use xlink:href="#DejaVuSans-79" x="726.269531"/>
     <use xlink:href="#DejaVuSans-20" x="785.449219"/>
     <use xlink:href="#DejaVuSans-44" x="817.236328"/>
     <use xlink:href="#DejaVuSans-69" x="894.238281"/>
     <use xlink:href="#DejaVuSans-73" x="922.021484"/>
     <use xlink:href="#DejaVuSans-74" x="974.121094"/>
     <use xlink:href="#DejaVuSans-72" x="1013.330078"/>
     <use xlink:href="#DejaVuSans-69" x="1054.443359"/>
     <use xlink:href="#DejaVuSans-62" x="1082.226562"/>
     <use xlink:href="#DejaVuSans-75" x="1145.703125"/>
     <use xlink:href="#DejaVuSans-74" x="1209.082031"/>
     <use xlink:href="#DejaVuSans-69" x="1248.291016"/>
     <use xlink:href="#DejaVuSans-6f" x="1276.074219"/>
     <use xlink:href="#DejaVuSans-6e" x="1337.255859"/>
    </g>
   </g>
   <g id="legend_1">
    <g id="patch_61">
     <path d="M 189.684375 63.185781 
L 373.964375 63.185781 
Q 375.564375 63.185781 375.564375 61.585781 
L 375.564375 27.158281 
Q 375.564375 25.558281 373.964375 25.558281 
L 189.684375 25.558281 
Q 188.084375 25.558281 188.084375 27.158281 
L 188.084375 61.585781 
Q 188.084375 63.185781 189.684375 63.185781 
z
" style="fill: #ffffff; opacity: 0.8; stroke: #cccccc; stroke-linejoin: miter"/>
    </g>
    <g id="patch_62">
     <path d="M 191.284375 34.837031 
L 207.284375 34.837031 
L 207.284375 29.237031 
L 191.284375 29.237031 
z
" style="fill: #1f77b4; opacity: 0.45"/>
    </g>
    <g id="text_18">
     <!-- qwen only -->
     <g transform="translate(213.684375 34.837031)scale(0.08 -0.08)">
      <defs>
       <path id="DejaVuSans-71" d="M 947 1747 
Q 947 1113 1208 752 
Q 1469 391 1925 391 
Q 2381 391 2643 752 
Q 2906 1113 2906 1747 
Q 2906 2381 2643 2742 
Q 2381 3103 1925 3103 
Q 1469 3103 1208 2742 
Q 947 2381 947 1747 
z
M 2906 525 
Q 2725 213 2448 61 
Q 2172 -91 1784 -91 
Q 1150 -91 751 415 
Q 353 922 353 1747 
Q 353 2572 751 3078 
Q 1150 3584 1784 3584 
Q 2172 3584 2448 3432 
Q 2725 3281 2906 2969 
L 2906 3500 
L 3481 3500 
L 3481 -1331 
L 2906 -1331 
L 2906 525 
z
" transform="scale(0.015625)"/>
       <path id="DejaVuSans-77" d="M 269 3500 
L 844 3500 
L 1563 769 
L 2278 3500 
L 2956 3500 
L 3675 769 
L 4391 3500 
L 4966 3500 
L 4050 0 
L 3372 0 
L 2619 2869 
L 1863 0 
L 1184 0 
L 269 3500 
z
" transform="scale(0.015625)"/>
       <path id="DejaVuSans-6c" d="M 603 4863 
L 1178 4863 
L 1178 0 
L 603 0 
L 603 4863 
z
" transform="scale(0.015625)"/>
      </defs>
      <use xlink:href="#DejaVuSans-71"/>
      <use xlink:href="#DejaVuSans-77" x="63.476562"/>
      <use xlink:href="#DejaVuSans-65" x="145.263672"/>
      <use xlink:href="#DejaVuSans-6e" x="206.787109"/>
      <use xlink:href="#DejaVuSans-20" x="270.166016"/>
      <use xlink:href="#DejaVuSans-6f" x="301.953125"/>
      <use xlink:href="#DejaVuSans-6e" x="363.134766"/>
      <use xlink:href="#DejaVuSans-6c" x="426.513672"/>
      <use xlink:href="#DejaVuSans-79" x="454.296875"/>
     </g>
    </g>
    <g id="patch_63">
     <path d="M 191.284375 46.579531 
L 207.284375 46.579531 
L 207.284375 40.979531 
L 191.284375 40.979531 
z
" style="fill: #ff7f0e; opacity: 0.45"/>
    </g>
    <g id="text_19">
     <!-- qwen with blockchain logging -->
     <g transform="translate(213.684375 46.579531)scale(0.08 -0.08)">
      <defs>
       <path id="DejaVuSans-68" d="M 3513 2113 
L 3513 0 
L 2938 0 
L 2938 2094 
Q 2938 2591 2744 2837 
Q 2550 3084 2163 3084 
Q 1697 3084 1428 2787 
Q 1159 2491 1159 1978 
L 1159 0 
L 581 0 
L 581 4863 
L 1159 4863 
L 1159 2956 
Q 1366 3272 1645 3428 
Q 1925 3584 2291 3584 
Q 2894 3584 3203 3211 
Q 3513 2838 3513 2113 
z
" transform="scale(0.015625)"/>
       <path id="DejaVuSans-6b" d="M 581 4863 
L 1159 4863 
L 1159 1991 
L 2875 3500 
L 3609 3500 
L 1753 1863 
L 3688 0 
L 2938 0 
L 1159 1709 
L 1159 0 
L 581 0 
L 581 4863 
z
" transform="scale(0.015625)"/>
       <path id="DejaVuSans-67" d="M 2906 1791 
Q 2906 2416 2648 2759 
Q 2391 3103 1925 3103 
Q 1463 3103 1205 2759 
Q 947 2416 947 1791 
Q 947 1169 1205 825 
Q 1463 481 1925 481 
Q 2391 481 2648 825 
Q 2906 1169 2906 1791 
z
M 3481 434 
Q 3481 -459 3084 -895 
Q 2688 -1331 1869 -1331 
Q 1566 -1331 1297 -1286 
Q 1028 -1241 775 -1147 
L 775 -588 
Q 1028 -725 1275 -790 
Q 1522 -856 1778 -856 
Q 2344 -856 2625 -561 
Q 2906 -266 2906 331 
L 2906 616 
Q 2728 306 2450 153 
Q 2172 0 1784 0 
Q 1141 0 747 490 
Q 353 981 353 1791 
Q 353 2603 747 3093 
Q 1141 3584 1784 3584 
Q 2172 3584 2450 3431 
Q 2728 3278 2906 2969 
L 2906 3500 
L 3481 3500 
L 3481 434 
z
" transform="scale(0.015625)"/>
      </defs>
      <use xlink:href="#DejaVuSans-71"/>
      <use xlink:href="#DejaVuSans-77" x="63.476562"/>
      <use xlink:href="#DejaVuSans-65" x="145.263672"/>
      <use xlink:href="#DejaVuSans-6e" x="206.787109"/>
      <use xlink:href="#DejaVuSans-20" x="270.166016"/>
      <use xlink:href="#DejaVuSans-77" x="301.953125"/>
      <use xlink:href="#DejaVuSans-69" x="383.740234"/>
      <use xlink:href="#DejaVuSans-74" x="411.523438"/>
      <use xlink:href="#DejaVuSans-68" x="450.732422"/>
      <use xlink:href="#DejaVuSans-20" x="514.111328"/>
      <use xlink:href="#DejaVuSans-62" x="545.898438"/>
      <use xlink:href="#DejaVuSans-6c" x="609.375"/>
      <use xlink:href="#DejaVuSans-6f" x="637.158203"/>
      <use xlink:href="#DejaVuSans-63" x="698.339844"/>
      <use xlink:href="#DejaVuSans-6b" x="753.320312"/>
      <use xlink:href="#DejaVuSans-63" x="811.230469"/>
      <use xlink:href="#DejaVuSans-68" x="866.210938"/>
      <use xlink:href="#DejaVuSans-61" x="929.589844"/>
      <use xlink:href="#DejaVuSans-69" x="990.869141"/>
      <use xlink:href="#DejaVuSans-6e" x="1018.652344"/>
      <use xlink:href="#DejaVuSans-20" x="1082.03125"/>
      <use xlink:href="#DejaVuSans-6c" x="1113.818359"/>
      <use xlink:href="#DejaVuSans-6f" x="1141.601562"/>
      <use xlink:href="#DejaVuSans-67" x="1202.783203"/>
      <use xlink:href="#DejaVuSans-67" x="1266.259766"/>
      <use xlink:href="#DejaVuSans-69" x="1329.736328"/>
      <use xlink:href="#DejaVuSans-6e" x="1357.519531"/>
      <use xlink:href="#DejaVuSans-67" x="1420.898438"/>
     </g>
    </g>
    <g id="patch_64">
     <path d="M 191.284375 58.322031 
L 207.284375 58.322031 
L 207.284375 52.722031 
L 191.284375 52.722031 
z
" style="fill: #2ca02c; opacity: 0.45"/>
    </g>
    <g id="text_20">
     <!-- qwen with audit and human review flag -->
     <g transform="translate(213.684375 58.322031)scale(0.08 -0.08)">
      <defs>
       <path id="DejaVuSans-76" d="M 191 3500 
L 800 3500 
L 1894 563 
L 2988 3500 
L 3597 3500 
L 2284 0 
L 1503 0 
L 191 3500 
z
" transform="scale(0.015625)"/>
       <path id="DejaVuSans-66" d="M 2375 4863 
L 2375 4384 
L 1825 4384 
Q 1516 4384 1395 4259 
Q 1275 4134 1275 3809 
L 1275 3500 
L 2222 3500 
L 2222 3053 
L 1275 3053 
L 1275 0 
L 697 0 
L 697 3053 
L 147 3053 
L 147 3500 
L 697 3500 
L 697 3744 
Q 697 4328 969 4595 
Q 1241 4863 1831 4863 
L 2375 4863 
z
" transform="scale(0.015625)"/>
      </defs>
      <use xlink:href="#DejaVuSans-71"/>
      <use xlink:href="#DejaVuSans-77" x="63.476562"/>
      <use xlink:href="#DejaVuSans-65" x="145.263672"/>
      <use xlink:href="#DejaVuSans-6e" x="206.787109"/>
      <use xlink:href="#DejaVuSans-20" x="270.166016"/>
      <use xlink:href="#DejaVuSans-77" x="301.953125"/>
      <use xlink:href="#DejaVuSans-69" x="383.740234"/>
      <use xlink:href="#DejaVuSans-74" x="411.523438"/>
      <use xlink:href="#DejaVuSans-68" x="450.732422"/>
      <use xlink:href="#DejaVuSans-20" x="514.111328"/>
      <use xlink:href="#DejaVuSans-61" x="545.898438"/>
      <use xlink:href="#DejaVuSans-75" x="607.177734"/>
      <use xlink:href="#DejaVuSans-64" x="670.556641"/>
      <use xlink:href="#DejaVuSans-69" x="734.033203"/>
      <use xlink:href="#DejaVuSans-74" x="761.816406"/>
      <use xlink:href="#DejaVuSans-20" x="801.025391"/>
      <use xlink:href="#DejaVuSans-61" x="832.8125"/>
      <use xlink:href="#DejaVuSans-6e" x="894.091797"/>
      <use xlink:href="#DejaVuSans-64" x="957.470703"/>
      <use xlink:href="#DejaVuSans-20" x="1020.947266"/>
      <use xlink:href="#DejaVuSans-68" x="1052.734375"/>
      <use xlink:href="#DejaVuSans-75" x="1116.113281"/>
      <use xlink:href="#DejaVuSans-6d" x="1179.492188"/>
      <use xlink:href="#DejaVuSans-61" x="1276.904297"/>
      <use xlink:href="#DejaVuSans-6e" x="1338.183594"/>
      <use xlink:href="#DejaVuSans-20" x="1401.5625"/>
      <use xlink:href="#DejaVuSans-72" x="1433.349609"/>
      <use xlink:href="#DejaVuSans-65" x="1472.212891"/>
      <use xlink:href="#DejaVuSans-76" x="1533.736328"/>
      <use xlink:href="#DejaVuSans-69" x="1592.916016"/>
      <use xlink:href="#DejaVuSans-65" x="1620.699219"/>
      <use xlink:href="#DejaVuSans-77" x="1682.222656"/>
      <use xlink:href="#DejaVuSans-20" x="1764.009766"/>
      <use xlink:href="#DejaVuSans-66" x="1795.796875"/>
      <use xlink:href="#DejaVuSans-6c" x="1831.001953"/>
      <use xlink:href="#DejaVuSans-61" x="1858.785156"/>
      <use xlink:href="#DejaVuSans-67" x="1920.064453"/>
     </g>
    </g>
   </g>
  </g>
 </g>
 <defs>
  <clipPath id="pf75d425547">
   <rect x="33.604375" y="21.558281" width="345.96" height="210.672"/>
  </clipPath>
 </defs>
</svg>
